<mxfile host="app.diagrams.net" modified="2022-08-16T08:14:40.144Z" agent="5.0 (Windows NT 10.0; Win64; x64) AppleWebKit/537.36 (KHTML, like Gecko) Chrome/104.0.0.0 Safari/537.36" etag="jIUt-5z_07rVJMLkssqm" version="20.2.3" type="github">
  <diagram id="fRpmfl5uzBEFOLkn9AJ5" name="Page-1">
    <mxGraphModel dx="1217" dy="825" grid="1" gridSize="10" guides="1" tooltips="1" connect="1" arrows="1" fold="1" page="1" pageScale="1" pageWidth="1169" pageHeight="827" math="0" shadow="0">
      <root>
        <mxCell id="0" />
        <mxCell id="1" parent="0" />
        <mxCell id="7PZzb2Dqn7xNDtoklr8E-1" value="App.java" style="swimlane;" parent="1" vertex="1">
          <mxGeometry x="70" y="80" width="200" height="130" as="geometry" />
        </mxCell>
        <mxCell id="7PZzb2Dqn7xNDtoklr8E-2" value="&lt;div&gt;-scene: Scene&lt;/div&gt;&lt;div&gt;&lt;br&gt;&lt;/div&gt;&lt;div&gt;+start(stage: Stage)&lt;/div&gt;&lt;div&gt;setRoot(fxml: String)&lt;/div&gt;&lt;div&gt;-loadFXML(fxml: String): Parent&lt;/div&gt;&lt;div&gt;+main(args: String)&lt;/div&gt;&lt;div&gt;&lt;br&gt;&lt;/div&gt;" style="text;html=1;align=center;verticalAlign=middle;resizable=0;points=[];autosize=1;strokeColor=none;fillColor=none;" parent="7PZzb2Dqn7xNDtoklr8E-1" vertex="1">
          <mxGeometry x="5" y="30" width="190" height="110" as="geometry" />
        </mxCell>
        <mxCell id="7PZzb2Dqn7xNDtoklr8E-3" value="" style="endArrow=none;html=1;rounded=0;entryX=1.017;entryY=0.277;entryDx=0;entryDy=0;entryPerimeter=0;exitX=-0.009;exitY=0.277;exitDx=0;exitDy=0;exitPerimeter=0;" parent="7PZzb2Dqn7xNDtoklr8E-1" source="7PZzb2Dqn7xNDtoklr8E-2" target="7PZzb2Dqn7xNDtoklr8E-2" edge="1">
          <mxGeometry width="50" height="50" relative="1" as="geometry">
            <mxPoint x="330" y="330" as="sourcePoint" />
            <mxPoint x="380" y="280" as="targetPoint" />
          </mxGeometry>
        </mxCell>
        <mxCell id="7PZzb2Dqn7xNDtoklr8E-5" value="PrimaryController.java - Initializable" style="swimlane;" parent="1" vertex="1">
          <mxGeometry x="320" y="80" width="320" height="390" as="geometry" />
        </mxCell>
        <mxCell id="7PZzb2Dqn7xNDtoklr8E-7" value="&lt;div&gt;@FXML&lt;/div&gt;&lt;div&gt;-keuzeLabel: Label&lt;/div&gt;&lt;div&gt;-toonLabel: Label&lt;/div&gt;&lt;div&gt;-toonsoortLabel: Label&lt;/div&gt;&lt;div&gt;-toonSelectorBox: ChoiceBox&amp;lt;String&amp;gt;&lt;/div&gt;&lt;div&gt;-toonsoortSelectorBox: ChoiceBox&amp;lt;String&amp;gt;&lt;/div&gt;&lt;div&gt;-TONEN: String[]&lt;/div&gt;&lt;div&gt;-TOONSOORTEN: String[]&amp;nbsp;&lt;/div&gt;&lt;div&gt;-mijnToon: String&lt;/div&gt;&lt;div&gt;-mijnToonsoort: String&lt;/div&gt;&lt;div&gt;-akkoord: Akkoord&lt;/div&gt;&lt;div&gt;&lt;br&gt;&lt;/div&gt;" style="text;html=1;align=center;verticalAlign=middle;resizable=0;points=[];autosize=1;strokeColor=none;fillColor=none;" parent="7PZzb2Dqn7xNDtoklr8E-5" vertex="1">
          <mxGeometry x="35" y="20" width="250" height="190" as="geometry" />
        </mxCell>
        <mxCell id="7PZzb2Dqn7xNDtoklr8E-9" value="&lt;div&gt;@FXML&lt;/div&gt;&lt;div&gt;-submitUserChoice()&lt;/div&gt;&lt;div&gt;@Override&lt;/div&gt;&lt;div&gt;+initialize(url: URL, resourceBundle: ResourceBundle)&lt;/div&gt;&lt;div&gt;-writeChordToDatabase()&lt;/div&gt;&lt;div&gt;-getToon(event: ActionEvent)&lt;/div&gt;&lt;div&gt;-getToonsoort(event: ActionEvent)&lt;/div&gt;&lt;div&gt;&lt;br&gt;&lt;/div&gt;" style="text;html=1;align=center;verticalAlign=middle;resizable=0;points=[];autosize=1;strokeColor=none;fillColor=none;" parent="7PZzb2Dqn7xNDtoklr8E-5" vertex="1">
          <mxGeometry x="5" y="225" width="310" height="130" as="geometry" />
        </mxCell>
        <mxCell id="7PZzb2Dqn7xNDtoklr8E-10" value="" style="endArrow=none;html=1;rounded=0;" parent="1" edge="1">
          <mxGeometry width="50" height="50" relative="1" as="geometry">
            <mxPoint x="320" y="280" as="sourcePoint" />
            <mxPoint x="640" y="280" as="targetPoint" />
          </mxGeometry>
        </mxCell>
        <mxCell id="7PZzb2Dqn7xNDtoklr8E-12" value="SecondaryController.java - Initializable" style="swimlane;" parent="1" vertex="1">
          <mxGeometry x="700" y="80" width="320" height="350" as="geometry" />
        </mxCell>
        <mxCell id="7PZzb2Dqn7xNDtoklr8E-13" value="&lt;div&gt;&lt;div&gt;-gekozenAkkoord: Akkoord&lt;/div&gt;&lt;div&gt;@FXML&lt;/div&gt;&lt;div&gt;-akkoordLabel: Label&lt;/div&gt;&lt;/div&gt;&lt;div&gt;&lt;br&gt;&lt;/div&gt;" style="text;html=1;align=center;verticalAlign=middle;resizable=0;points=[];autosize=1;strokeColor=none;fillColor=none;" parent="7PZzb2Dqn7xNDtoklr8E-12" vertex="1">
          <mxGeometry x="75" y="80" width="170" height="70" as="geometry" />
        </mxCell>
        <mxCell id="7PZzb2Dqn7xNDtoklr8E-15" value="&lt;div&gt;&lt;div&gt;@FXML&lt;/div&gt;&lt;div&gt;-switchToPrimary()&lt;/div&gt;&lt;div&gt;@Override&lt;/div&gt;&lt;div&gt;+initialize(url: URL, resourceBundle: ResourceBundle)&lt;/div&gt;&lt;div&gt;-pullChordFromDatabase()&lt;/div&gt;&lt;/div&gt;&lt;div&gt;&lt;br&gt;&lt;/div&gt;" style="text;html=1;align=center;verticalAlign=middle;resizable=0;points=[];autosize=1;strokeColor=none;fillColor=none;" parent="1" vertex="1">
          <mxGeometry x="700" y="310" width="310" height="100" as="geometry" />
        </mxCell>
        <mxCell id="7PZzb2Dqn7xNDtoklr8E-16" value="" style="endArrow=none;html=1;rounded=0;" parent="1" edge="1">
          <mxGeometry width="50" height="50" relative="1" as="geometry">
            <mxPoint x="700" y="280" as="sourcePoint" />
            <mxPoint x="1020" y="280" as="targetPoint" />
          </mxGeometry>
        </mxCell>
        <mxCell id="7PZzb2Dqn7xNDtoklr8E-17" value="Akkoord.java" style="swimlane;" parent="1" vertex="1">
          <mxGeometry x="80" y="284" width="220" height="180" as="geometry" />
        </mxCell>
        <mxCell id="7PZzb2Dqn7xNDtoklr8E-18" value="&lt;div&gt;&lt;div&gt;-toon: String&lt;/div&gt;&lt;div&gt;-toonsoort: String&lt;/div&gt;&lt;/div&gt;&lt;div&gt;&lt;br&gt;&lt;/div&gt;&lt;div&gt;&lt;br&gt;&lt;/div&gt;&lt;div&gt;&lt;div&gt;+Akkoord(toon: String, toonsoort: String)&lt;/div&gt;&lt;div&gt;+toString(): String&lt;/div&gt;&lt;div&gt;+getToon(): String&lt;/div&gt;&lt;div&gt;+getToonsoort(): String&lt;/div&gt;&lt;div&gt;+setToon(toon: String)&lt;/div&gt;&lt;div&gt;+setToonsoort(toonsoort: String)&lt;/div&gt;&lt;/div&gt;&lt;div&gt;&lt;br&gt;&lt;/div&gt;&lt;div&gt;&lt;br&gt;&lt;/div&gt;" style="text;html=1;align=center;verticalAlign=middle;resizable=0;points=[];autosize=1;strokeColor=none;fillColor=none;" parent="7PZzb2Dqn7xNDtoklr8E-17" vertex="1">
          <mxGeometry x="-10" y="16" width="240" height="190" as="geometry" />
        </mxCell>
        <mxCell id="7PZzb2Dqn7xNDtoklr8E-19" value="" style="endArrow=none;html=1;rounded=0;" parent="7PZzb2Dqn7xNDtoklr8E-17" edge="1">
          <mxGeometry width="50" height="50" relative="1" as="geometry">
            <mxPoint y="69" as="sourcePoint" />
            <mxPoint x="220" y="69" as="targetPoint" />
          </mxGeometry>
        </mxCell>
        <mxCell id="7PZzb2Dqn7xNDtoklr8E-20" value="AkkoordKeuzeDAO.java -&gt; AbtractDAO" style="swimlane;" parent="1" vertex="1">
          <mxGeometry x="50" y="530" width="320" height="130" as="geometry" />
        </mxCell>
        <mxCell id="7PZzb2Dqn7xNDtoklr8E-21" value="&lt;div&gt;&lt;div&gt;+AkkoordKeuzeDAO(dBaccess: DBaccess)&lt;/div&gt;&lt;div&gt;+slaAkkoordKeuzeOp(akkoord: Akkoord)&lt;/div&gt;&lt;div&gt;+toonAkkoorden(): ArrayList&amp;lt;Akkoord&amp;gt;&lt;/div&gt;&lt;div&gt;-getAkkoordFromResultSet(resultSet: ResultSet): Akkoord&lt;/div&gt;&lt;/div&gt;&lt;div&gt;&lt;br&gt;&lt;/div&gt;" style="text;html=1;align=center;verticalAlign=middle;resizable=0;points=[];autosize=1;strokeColor=none;fillColor=none;" parent="7PZzb2Dqn7xNDtoklr8E-20" vertex="1">
          <mxGeometry x="-5" y="30" width="330" height="90" as="geometry" />
        </mxCell>
        <mxCell id="7PZzb2Dqn7xNDtoklr8E-23" value="CircularLinkedList.java" style="swimlane;" parent="1" vertex="1">
          <mxGeometry x="440" y="530" width="200" height="155" as="geometry" />
        </mxCell>
        <mxCell id="7PZzb2Dqn7xNDtoklr8E-24" value="&lt;div&gt;&lt;div&gt;&lt;div&gt;-head: Node&lt;/div&gt;&lt;div&gt;-tail: Node&lt;/div&gt;&lt;/div&gt;&lt;/div&gt;&lt;div&gt;&lt;br&gt;&lt;/div&gt;" style="text;html=1;align=center;verticalAlign=middle;resizable=0;points=[];autosize=1;strokeColor=none;fillColor=none;" parent="7PZzb2Dqn7xNDtoklr8E-23" vertex="1">
          <mxGeometry x="50" y="27" width="90" height="60" as="geometry" />
        </mxCell>
        <mxCell id="7PZzb2Dqn7xNDtoklr8E-28" value="&lt;blockquote style=&quot;margin: 0 0 0 40px; border: none; padding: 0px;&quot;&gt;&lt;blockquote style=&quot;margin: 0 0 0 40px; border: none; padding: 0px;&quot;&gt;+CircularLinkedList()&lt;/blockquote&gt;&lt;blockquote style=&quot;margin: 0 0 0 40px; border: none; padding: 0px;&quot;&gt;+addNode(note: String)&lt;/blockquote&gt;&lt;blockquote style=&quot;margin: 0 0 0 40px; border: none; padding: 0px;&quot;&gt;+display()&lt;/blockquote&gt;&lt;blockquote style=&quot;margin: 0 0 0 40px; border: none; padding: 0px;&quot;&gt;+setHead(index: int)&lt;/blockquote&gt;&lt;div&gt;&lt;br&gt;&lt;/div&gt;&lt;/blockquote&gt;" style="text;html=1;align=center;verticalAlign=middle;resizable=0;points=[];autosize=1;strokeColor=none;fillColor=none;" parent="7PZzb2Dqn7xNDtoklr8E-23" vertex="1">
          <mxGeometry x="-49" y="75" width="230" height="90" as="geometry" />
        </mxCell>
        <mxCell id="7PZzb2Dqn7xNDtoklr8E-27" value="" style="endArrow=none;html=1;rounded=0;" parent="1" edge="1">
          <mxGeometry width="50" height="50" relative="1" as="geometry">
            <mxPoint x="440" y="604" as="sourcePoint" />
            <mxPoint x="640" y="604" as="targetPoint" />
          </mxGeometry>
        </mxCell>
        <mxCell id="7PZzb2Dqn7xNDtoklr8E-29" value="Node.java" style="swimlane;" parent="1" vertex="1">
          <mxGeometry x="700" y="530" width="130" height="100" as="geometry" />
        </mxCell>
        <mxCell id="7PZzb2Dqn7xNDtoklr8E-32" value="&lt;div&gt;+value: String&lt;/div&gt;&lt;div&gt;+nextNode: Node&lt;/div&gt;&lt;div&gt;&lt;br&gt;&lt;/div&gt;" style="text;html=1;align=center;verticalAlign=middle;resizable=0;points=[];autosize=1;strokeColor=none;fillColor=none;" parent="7PZzb2Dqn7xNDtoklr8E-29" vertex="1">
          <mxGeometry x="11" y="35" width="120" height="60" as="geometry" />
        </mxCell>
      </root>
    </mxGraphModel>
  </diagram>
</mxfile>
